<mxfile host="65bd71144e">
    <diagram id="oLQmXq2ciN3WbTHtwTG0" name="ページ1">
        <mxGraphModel dx="3550" dy="813" grid="1" gridSize="10" guides="1" tooltips="1" connect="1" arrows="1" fold="1" page="1" pageScale="1" pageWidth="2339" pageHeight="3300" math="0" shadow="0">
            <root>
                <mxCell id="0"/>
                <mxCell id="1" parent="0"/>
                <mxCell id="2" value="一般ユーザー" style="shape=umlActor;verticalLabelPosition=bottom;verticalAlign=top;html=1;" vertex="1" parent="1">
                    <mxGeometry x="-20" y="70" width="30" height="60" as="geometry"/>
                </mxCell>
                <mxCell id="3" value="自分のTODOタスク登録" style="ellipse;whiteSpace=wrap;html=1;" vertex="1" parent="1">
                    <mxGeometry x="160" y="60" width="260" height="70" as="geometry"/>
                </mxCell>
                <mxCell id="5" value="ユーザー情報登録" style="ellipse;whiteSpace=wrap;html=1;" vertex="1" parent="1">
                    <mxGeometry x="160" y="280" width="260" height="70" as="geometry"/>
                </mxCell>
                <mxCell id="6" value="自分のTODOタスク更新" style="ellipse;whiteSpace=wrap;html=1;" vertex="1" parent="1">
                    <mxGeometry x="450" y="60" width="260" height="70" as="geometry"/>
                </mxCell>
                <mxCell id="7" value="自分のTODOタスク削除" style="ellipse;whiteSpace=wrap;html=1;" vertex="1" parent="1">
                    <mxGeometry x="730" y="60" width="260" height="70" as="geometry"/>
                </mxCell>
                <mxCell id="8" value="自分のユーザー情報更新" style="ellipse;whiteSpace=wrap;html=1;" vertex="1" parent="1">
                    <mxGeometry x="160" y="140" width="260" height="70" as="geometry"/>
                </mxCell>
                <mxCell id="9" value="ユーザー情報削除" style="ellipse;whiteSpace=wrap;html=1;" vertex="1" parent="1">
                    <mxGeometry x="450" y="280" width="260" height="70" as="geometry"/>
                </mxCell>
                <mxCell id="10" value="他人のTODOタスク登録" style="ellipse;whiteSpace=wrap;html=1;" vertex="1" parent="1">
                    <mxGeometry x="740" y="280" width="260" height="70" as="geometry"/>
                </mxCell>
                <mxCell id="11" value="自分のTODOタスク閲覧" style="ellipse;whiteSpace=wrap;html=1;" vertex="1" parent="1">
                    <mxGeometry x="450" y="140" width="260" height="70" as="geometry"/>
                </mxCell>
                <mxCell id="12" value="他人のTODOタスク更新" style="ellipse;whiteSpace=wrap;html=1;" vertex="1" parent="1">
                    <mxGeometry x="160" y="360" width="260" height="70" as="geometry"/>
                </mxCell>
                <mxCell id="13" value="他人のTODOタスク削除" style="ellipse;whiteSpace=wrap;html=1;" vertex="1" parent="1">
                    <mxGeometry x="450" y="360" width="260" height="70" as="geometry"/>
                </mxCell>
                <mxCell id="14" value="他人のTODOタスク閲覧" style="ellipse;whiteSpace=wrap;html=1;" vertex="1" parent="1">
                    <mxGeometry x="740" y="360" width="260" height="70" as="geometry"/>
                </mxCell>
                <mxCell id="15" value="管理者ユーザー" style="shape=umlActor;verticalLabelPosition=bottom;verticalAlign=top;html=1;" vertex="1" parent="1">
                    <mxGeometry x="-20" y="400" width="30" height="60" as="geometry"/>
                </mxCell>
                <mxCell id="17" value="" style="rounded=0;whiteSpace=wrap;html=1;strokeColor=#3333FF;fillColor=none;" vertex="1" parent="1">
                    <mxGeometry x="140" y="30" width="900" height="200" as="geometry"/>
                </mxCell>
                <mxCell id="18" value="" style="endArrow=none;html=1;exitX=0.75;exitY=0.1;exitDx=0;exitDy=0;exitPerimeter=0;entryX=-0.004;entryY=0.4;entryDx=0;entryDy=0;entryPerimeter=0;strokeColor=#0000FF;" edge="1" parent="1" source="2" target="17">
                    <mxGeometry width="50" height="50" relative="1" as="geometry">
                        <mxPoint x="90" y="110" as="sourcePoint"/>
                        <mxPoint x="140" y="60" as="targetPoint"/>
                    </mxGeometry>
                </mxCell>
                <mxCell id="19" value="" style="rounded=0;whiteSpace=wrap;html=1;strokeColor=#FF8000;fillColor=none;" vertex="1" parent="1">
                    <mxGeometry x="110" y="10" width="950" height="490" as="geometry"/>
                </mxCell>
                <mxCell id="21" value="" style="endArrow=none;html=1;strokeColor=#FF8000;exitX=0.5;exitY=0;exitDx=0;exitDy=0;exitPerimeter=0;entryX=-0.002;entryY=0.557;entryDx=0;entryDy=0;entryPerimeter=0;" edge="1" parent="1" source="15" target="19">
                    <mxGeometry width="50" height="50" relative="1" as="geometry">
                        <mxPoint x="40" y="280" as="sourcePoint"/>
                        <mxPoint x="90" y="230" as="targetPoint"/>
                    </mxGeometry>
                </mxCell>
                <mxCell id="22" value="一般ユーザーができること" style="shape=note;whiteSpace=wrap;html=1;backgroundOutline=1;darkOpacity=0.05;strokeColor=#000000;fillColor=none;" vertex="1" parent="1">
                    <mxGeometry x="780" y="152.5" width="240" height="45" as="geometry"/>
                </mxCell>
                <mxCell id="23" value="管理者ユーザーができること" style="shape=note;whiteSpace=wrap;html=1;backgroundOutline=1;darkOpacity=0.05;strokeColor=#000000;fillColor=none;" vertex="1" parent="1">
                    <mxGeometry x="780" y="440" width="240" height="45" as="geometry"/>
                </mxCell>
            </root>
        </mxGraphModel>
    </diagram>
</mxfile>